<?xml version="1.0" encoding="utf-8"?>
<!-- Generator: Adobe Illustrator 19.1.0, SVG Export Plug-In . SVG Version: 6.00 Build 0)  -->
<svg version="1.1" id="レイヤー_1" xmlns="http://www.w3.org/2000/svg" xmlns:xlink="http://www.w3.org/1999/xlink" x="0px"
	 y="0px" viewBox="0 0 960 217.3" style="enable-background:new 0 0 960 217.3;" xml:space="preserve">
<style type="text/css">
	.st0{fill:#666666;}
	.st1{fill:#018F95;}
	.st2{fill:#FF7BAC;}
	.st3{fill:#FF931E;}
	.st4{fill:#3FA9F5;}
</style>
<g>
	<path class="st0" d="M115.7,109.4H59.6c-0.2,1.5-0.7,4.1-1.5,7.6c-3,13.6-9.4,28.7-19,45.5c-4.1-2.8-8.2-5.6-12.5-8.4
		c8.7-14.8,14.5-28.3,17.3-40.4l0.9-4.3H7V94.7h40.3c0.7-5.1,1.2-11.2,1.5-18.4v-7H63v7c-0.1,7.6-0.5,13.7-1.1,18.4h53.8V109.4z
		 M108,202.8c-16.4,0.2-29.5-6-39.2-18.6c-0.7-1-2.1-3-4.1-5.9c4.1-2.8,8.1-5.6,12.2-8.2l4.1,6.2c3.5,4.8,8.2,8.1,14,10
		c5.8,1.9,11.7,2.5,17.9,1.7c6.1-0.7,14.6-2.6,25.3-5.8c1.2,4.7,2.5,9.2,4,13.7C128.7,200.3,117.4,202.6,108,202.8z M140.5,140.3
		H72.1v-14.1h68.4V140.3z"/>
	<path class="st0" d="M186.3,193.7l-14-2.7l23.4-114.7l14.7,2.7l-10,46.7c0.4-0.1,0.9-0.3,1.4-0.5c7.1-1.3,13.6,0,19.5,4
		c3.4,2.2,6.1,5.1,8.1,8.5c1.9,3.4,3.4,6.8,4.6,10.2c1.1,3.3,2.2,6.7,3.3,10.2c1,3.9,2,7.5,3,11c1,3.5,2.5,6.5,4.4,8.9
		c1.9,2.4,4.4,3.6,7.5,3.6c4.8-0.2,8.5-2.3,11.3-6.3c2.7-4,4.7-8.5,5.9-13.5c1.2-5,1.9-10.1,2.2-15.4v-7h14.7v7.1
		c-0.2,5.4-0.9,10.6-2,15.8c-1.1,5.2-2.9,10.3-5.2,15.3c-2.4,5-5.9,9.3-10.6,12.8c-4.7,3.5-10,5.3-16.1,5.2
		c-6.2,0.2-11.4-1.6-15.7-5.5c-4.3-3.9-7.3-8.4-9-13.5c-1.8-5.1-3.2-10-4.3-14.7c-0.8-2.7-1.6-5.4-2.4-8.1c-0.8-2.6-1.8-5-3-7.2
		c-1.2-2.2-2.8-4-4.9-5.4c-2.3-1.9-4.8-2.7-7.3-2.3c-2,0.7-3.9,1.8-5.5,3.3c-1.7,1.5-3,3-4,4.4L186.3,193.7z"/>
	<path class="st0" d="M389.6,139.8l-10.6-10.6l25.2-25.2h-80V89.2h96.7l-2.7-19.9l13.1-0.3l5,37.4l-13.1,0.9l-0.2-1.4L389.6,139.8z
		 M382.1,191.8c-8,0.1-15.8-1.5-23.3-4.8c-7.5-3.3-13.5-8.4-18.1-15.3c-0.7-0.9-2.1-2.9-4.3-6.1c4.3-2.5,8.3-4.9,12.2-7l4.1,5.3
		c3.7,5.4,8.7,9.1,14.9,11.2c6.2,2.1,12.6,2.8,19.2,2.1c6.6-0.7,13.1-2.1,19.2-4.2c1.1-0.5,3.5-1.4,7.1-2.7
		c1.4,4.8,2.8,9.3,4.3,13.7c-3.3,1.3-5.6,2.2-6.8,2.7C401.5,190,392,191.6,382.1,191.8z M444.5,106.1l-5-38l13.1-0.3l5.6,37.4
		L444.5,106.1z"/>
	<path class="st0" d="M591.1,191.1H483.5V83h14.1v1.4h93.4V191.1z M497.7,176.9h78.5V98.5h-78.5V176.9z"/>
	<path class="st0" d="M659,199.8c-1.4-4.3-2.9-8.9-4.4-13.8c3-0.2,5.5-0.6,7.3-1.2c12.9-4.1,23.7-11,32.6-21
		c8.9-9.9,15.8-21.1,20.9-33.6c5.1-12.5,8.5-23.9,10.3-34.4h-52.9c-1.8,5.8-4.9,11.9-9.2,18.4c-4.3,6.5-9.6,12.2-15.7,17.2l-5.5,4.3
		c-3.1-3.5-6.4-7.2-9.7-10.9c2.9-2.3,4.9-3.9,5.8-4.6c5.2-4.4,9.6-9.4,13.2-15.1c3.6-5.7,7.5-13.5,11.4-23.3h68.7L729,60.8l13.7-0.3
		l5.6,36.2l-7.6,0.5c-2.4,12.8-6,25.2-10.8,37.4c-5.8,14.5-14,27.6-24.6,39.4c-10.6,11.8-23.8,20-39.5,24.6
		C663.6,199.5,661.4,199.9,659,199.8z M755.9,96.4l-5-36.8l13.7-0.3l5.6,36.2L755.9,96.4z"/>
</g>
<g>
	<g>
		<polygon class="st1" points="923.3,96 899.4,96 885,108.5 885,165 854,165 854,133.7 796.7,181.7 826.6,217.3 943,120.3 		"/>
	</g>
	<g>
		<polygon class="st2" points="906.5,96 885,96 885,133.3 		"/>
		<polygon class="st2" points="854,96 853,96 809.4,171.4 849.4,195.6 867.1,166 854,166 		"/>
		<polygon class="st2" points="914.3,83 925.4,64.1 885.3,40.8 860.7,83 		"/>
	</g>
	<g>
		<polygon class="st3" points="822.5,96 803.4,158.5 847.5,172.2 854,150.7 854,96 		"/>
	</g>
	<polygon class="st3" points="891.9,27.7 847.7,14.1 826.6,83 875,83 	"/>
	<g>
		<polygon class="st4" points="798,83 840.5,83 846.1,3.7 800,0.5 789.2,151.3 835.4,154.3 839.5,96 798,96 		"/>
	</g>
</g>
</svg>
